<?xml version="1.0" encoding="utf-8"?>
<!-- Generator: Adobe Illustrator 26.3.1, SVG Export Plug-In . SVG Version: 6.00 Build 0)  -->
<svg version="1.1" xmlns="http://www.w3.org/2000/svg" xmlns:xlink="http://www.w3.org/1999/xlink" x="0px" y="0px"
	 viewBox="0 0 1500 351.58" style="enable-background:new 0 0 1500 351.58;" xml:space="preserve">
<style type="text/css">
	.st0{fill:none;stroke:#FFFFFF;stroke-width:5;}
	.st1{fill:#FFFFFF;stroke:#FFFFFF;stroke-width:12;stroke-linecap:round;stroke-linejoin:round;stroke-miterlimit:10;}
	.st2{fill:#ED1C2D;}
	.st3{fill:#1C75BC;}
	.st4{fill:#00AEEF;}
	.st5{fill:#FFFFFF;}
</style>
<g id="background">
	<path class="st0" d="M799.8,5.29"/>
</g>
<g id="eye">
</g>
<g id="cellu">
	<g>
		<path class="st1" d="M374.66,310.08"/>
		<path class="st1" d="M388.24,17.79C362.86,10.13,336.4,5.45,309.47,5.3C150.19,4.4,16.1,161.88,16.1,161.88
			s132.31,158.98,291.58,159.88c24.17,0.14,47.99-3.38,71.03-9.43"/>
	</g>
	<g>
		<path class="st2" d="M362.42,278.68c-1.35-7.31-2.52-17.21-3.51-29.7c-0.57-7.66-0.85-17.24-0.85-28.74v-7.03
			c0-14.62,0.36-26.82,1.06-36.62c0.29-3.83,0.64-8.44,1.06-13.84c0.29-3.83,0.57-7.31,0.85-10.43c0.85-13.76,2.55-27.04,5.11-39.81
			c0.71-3.55,1.38-7.2,2.02-10.96c0.64-3.76,1.52-9.4,2.66-16.92c0.43-3.12,0.99-6.56,1.7-10.33c0.71-3.76,1.35-6.92,1.92-9.47
			c0.71-2.55,1.45-5.61,2.24-9.15c0.78-3.55,1.45-6.74,2.02-9.58c1.28-6.1,2.69-11.71,4.26-16.82c0.11-0.37,0.22-0.72,0.34-1.07
			c-20.72-9.08-43.86-14.16-68.27-14.16c-88.71,0-160.62,66.99-160.62,149.62c0,82.63,71.91,149.62,160.62,149.62
			c19.66,0,38.5-3.3,55.91-9.32c-0.94-1.84-1.9-3.85-2.87-6.03C365.65,292.41,363.77,285.99,362.42,278.68z"/>
		<g>
			<path class="st3" d="M358.05,213.21c0-14.62,0.36-26.82,1.06-36.62c0.29-3.83,0.64-8.44,1.06-13.84
				c0.29-3.83,0.57-7.31,0.85-10.43c0.85-13.76,2.55-27.04,5.11-39.81c0.1-0.5,0.2-1.02,0.29-1.53
				c-13.27-12.95-31.41-20.94-51.41-20.94c-40.67,0-73.64,32.97-73.64,73.64c0,40.67,32.97,73.64,73.64,73.64
				c16.07,0,30.93-5.16,43.04-13.9c-0.01-1.05-0.01-2.1-0.01-3.18V213.21z"/>
		</g>
		<path class="st4" d="M319.95,108.15c-30.66,0-55.51,24.02-55.51,53.64L319.95,108.15z"/>
		<g>
			<path class="st5" d="M369.27,302.72c-11.57,3.83-23.94,6.6-36.83,7.97c-1.61,0.23-3.23,0.27-4.86,0.42
				c-1.63,0.11-3.26,0.27-4.9,0.35c-1.64,0.05-3.29,0.09-4.94,0.14l-2.48,0.07c-0.76,0.01-1.65-0.03-2.47-0.04
				c-1.68-0.03-3.36-0.05-5.05-0.08c-1.69-0.02-3.34-0.18-5.02-0.27c-1.67-0.13-3.35-0.16-5.04-0.36c-1.68-0.18-3.37-0.37-5.07-0.55
				c-1.7-0.15-3.38-0.45-5.08-0.71c-1.69-0.28-3.39-0.51-5.09-0.82c-1.69-0.35-3.38-0.7-5.08-1.04c-0.85-0.18-1.7-0.33-2.54-0.54
				l-2.53-0.64c-1.68-0.44-3.38-0.84-5.07-1.31c-1.67-0.51-3.35-1.02-5.03-1.53c-1.69-0.48-3.35-1.08-5.01-1.68
				c-1.66-0.61-3.34-1.16-4.99-1.82c-18.19-6.98-35.55-17.65-50.42-31.44c-2.97-2.76-2.36-3.75,0.8-1.14
				c2.55,2.1,5.22,4.14,8.03,6.08c4.05,2.74,8.25,5.47,12.77,7.83c1.13,0.59,2.26,1.19,3.4,1.79c1.17,0.54,2.34,1.09,3.52,1.64
				c2.33,1.15,4.79,2.07,7.24,3.09c1.22,0.53,2.49,0.92,3.74,1.38c1.26,0.44,2.52,0.9,3.8,1.31c1.29,0.37,2.59,0.75,3.89,1.13
				l1.96,0.57l1.99,0.48c1.33,0.31,2.67,0.63,4.01,0.95c1.34,0.31,2.71,0.52,4.07,0.78c2.72,0.56,5.5,0.89,8.29,1.26
				c1.39,0.21,2.82,0.3,4.25,0.42c1.43,0.11,2.86,0.22,4.3,0.33c1.39,0.04,2.78,0.09,4.18,0.13l2.1,0.06c0,0,0.28,0.01,0.36,0.01
				l0.27-0.01l0.54-0.01l1.08-0.02c1.45-0.04,2.89-0.07,4.35-0.11c1.45-0.06,2.91-0.21,4.37-0.31c2.92-0.16,5.84-0.61,8.77-0.97
				c5.84-0.92,11.73-2.07,17.52-3.81c2.93-0.76,5.77-1.83,8.65-2.81c0.98-0.37,1.94-0.78,2.92-1.16c2.05-0.78,4.02-0.5,4.99-0.35
				c8.66,1.34,17.67,1.77,26.76,1.17c-0.38-1.31-0.73-2.66-1.07-4.05c-0.19,0.01-0.39,0.03-0.58,0.04c-1.25,0.1-2.5,0.08-3.74,0.12
				c-1.24,0.02-2.48,0.1-3.72,0.04c-2.47-0.06-4.93-0.21-7.37-0.31c-4.04-0.17-3.62-1.92-0.97-3.35c4.85-2.62,9.57-5.57,14.1-8.82
				c-0.34-2.33-0.66-4.85-0.97-7.55c-7.77,5.74-16.08,10.57-24.72,14.31c-5.11,2.02-10.25,1.63-12.77,0.92
				c-7.68-2.14-14.91-5.18-21.64-8.64c-7.87-4.11-15.02-8.96-21.37-14.22c-12.74-10.53-22.06-22.9-28.28-34.86
				c-3.14-5.98-5.46-11.89-7.22-17.47c-0.22-0.7-0.45-1.39-0.66-2.07c-0.19-0.69-0.37-1.38-0.55-2.06
				c-0.34-1.36-0.75-2.68-1.02-3.99c-0.27-1.32-0.53-2.6-0.79-3.86c-0.27-1.25-0.4-2.5-0.6-3.7c-0.47-3.07,1.87-3.49,2.75-0.94
				c10.17,29.73,38.37,51.17,71.51,51.17c15.99,0,30.83-5.01,43.05-13.52c-0.01-1.54-0.02-3.12-0.02-4.74
				c-11.99,9.03-26.9,14.39-43.03,14.39c-39.54,0-71.71-32.17-71.71-71.71c0-39.54,32.17-71.71,71.71-71.71
				c19.92,0,37.96,8.17,50.97,21.33c0.05-0.26,0.1-0.53,0.15-0.79c0.25-1.23,0.48-2.49,0.72-3.75
				c-13.54-12.79-31.78-20.66-51.84-20.66c-13.91,0-26.83,4.01-38.17,10.37c-5.76,3.23-7.14,1.39-2.18-3.13
				c8.52-7.77,19.34-14.72,31.8-20.02c7.6-3.24,15.83-5.86,24.55-7.58c8.73-1.66,17.95-2.44,27.4-2.12
				c1.18-0.01,2.37,0.09,3.55,0.19c3.41,0.28,8.3,1.34,11.05,3.95c0.11,0.1,0.21,0.21,0.32,0.31c0.39-1.96,0.76-3.71,1.1-5.24
				c0.07-0.24,0.13-0.51,0.2-0.75c-0.46-0.08-0.93-0.17-1.39-0.25c-0.62-0.11-1.9-0.35-1.98-0.37c-1.57-0.4-3.17-1.2-3.64-1.6
				c-9.15-7.69-19.21-14.13-29.79-19.08l-2.05-0.98l-2.09-0.87c-1.4-0.57-2.78-1.18-4.19-1.73c-2.84-1-5.64-2.11-8.51-2.92
				c-5.69-1.83-11.5-3.1-17.28-4.1c-2.91-0.41-5.78-0.89-8.72-1.1c-1.45-0.12-2.94-0.3-4.36-0.37c-1.41-0.06-2.82-0.11-4.23-0.17
				l-1.05-0.04l-0.53-0.02l-0.26-0.01l-0.34,0l-2.15,0.03c-1.43,0.02-2.85,0.04-4.27,0.07c-1.42,0.09-2.83,0.18-4.24,0.27
				c-1.41,0.1-2.82,0.16-4.2,0.35c-2.79,0.32-5.56,0.63-8.27,1.17c-1.36,0.25-2.73,0.45-4.07,0.75c-1.34,0.31-2.67,0.61-4,0.91
				l-1.99,0.46l-1.96,0.55c-1.3,0.37-2.6,0.73-3.89,1.1c-1.28,0.39-2.54,0.85-3.8,1.28c-1.25,0.45-2.53,0.83-3.74,1.35
				c-2.44,1-4.9,1.9-7.24,3.04c-1.18,0.54-2.35,1.08-3.52,1.62c-1.14,0.59-2.28,1.18-3.41,1.77c-2.72,1.4-3.49,0.21-0.89-1.58
				c0.48-0.33,0.97-0.64,1.45-0.96l2.26-1.48l2.32-1.38c1.55-0.9,3.08-1.86,4.65-2.72c3.17-1.67,6.29-3.41,9.54-4.87
				c3.19-1.59,6.48-2.88,9.74-4.25c6.59-2.51,13.22-4.79,19.95-6.44l2.51-0.66c0.84-0.21,1.69-0.37,2.53-0.56
				c1.69-0.36,3.37-0.72,5.04-1.08c1.68-0.32,3.38-0.57,5.06-0.86c1.68-0.28,3.36-0.59,5.05-0.75c1.69-0.2,3.37-0.4,5.04-0.6
				c1.67-0.22,3.36-0.26,5.03-0.4c1.68-0.1,3.34-0.28,5.01-0.31c1.67-0.04,3.33-0.08,4.99-0.12c0.81-0.02,1.7-0.05,2.44-0.06
				l2.51,0.05c1.67,0.03,3.33,0.07,4.99,0.1c1.65,0.06,3.25,0.21,4.87,0.31c1.62,0.14,3.22,0.16,4.83,0.38
				c12.88,1.29,25.23,4.04,36.81,7.81c4.66,1.54,9.18,3.28,13.55,5.17c0.07-0.22,0.13-0.44,0.19-0.66c0.3-0.98,0.59-1.88,0.88-2.74
				c-4.33-1.94-8.81-3.73-13.42-5.33c-11.78-4.05-24.44-6.84-37.61-8.26c-1.64-0.23-3.32-0.28-4.99-0.42
				c-1.67-0.11-3.36-0.27-5.02-0.34c-1.66-0.04-3.32-0.09-4.99-0.13l-2.51-0.07c-0.94-0.01-1.72,0.03-2.59,0.04
				c-1.7,0.04-3.4,0.08-5.11,0.12c-1.71,0.03-3.42,0.22-5.13,0.32c-1.71,0.14-3.44,0.19-5.16,0.42c-1.72,0.2-3.44,0.41-5.17,0.61
				c-1.73,0.17-3.45,0.49-5.17,0.77c-1.72,0.3-3.46,0.55-5.18,0.89c-1.72,0.37-3.44,0.74-5.17,1.11c-0.86,0.19-1.73,0.36-2.59,0.58
				l-2.57,0.68c-1.71,0.46-3.44,0.89-5.15,1.39c-1.7,0.54-3.4,1.08-5.11,1.63c-1.72,0.51-3.4,1.15-5.08,1.78
				c-1.68,0.64-3.39,1.22-5.06,1.91c-3.32,1.42-6.69,2.77-9.94,4.42c-3.31,1.51-6.5,3.31-9.73,5.05c-1.6,0.89-3.16,1.88-4.74,2.81
				l-2.37,1.42l-2.31,1.53c-1.53,1.04-3.09,2.03-4.6,3.1c-1.49,1.1-2.99,2.2-4.48,3.3c-11.83,9-22.59,19.74-31.55,31.98
				c-4.43,6.15-8.53,12.58-12.03,19.37c-3.47,6.8-6.49,13.85-8.92,21.12c-2.34,7.3-4.13,14.78-5.37,22.36
				c-1.12,7.58-1.66,15.35-1.67,22.92c0.13,30.82,10.84,61.08,28.87,85.17c4.47,6.06,9.42,11.71,14.63,17.05
				c1.33,1.31,2.66,2.62,3.98,3.92c1.38,1.24,2.77,2.49,4.15,3.73c1.36,1.26,2.81,2.42,4.25,3.58c1.45,1.15,2.83,2.38,4.34,3.44
				c1.49,1.1,2.97,2.19,4.45,3.28c1.5,1.07,3.05,2.05,4.57,3.08l2.29,1.52l2.35,1.43c1.57,0.94,3.1,1.93,4.69,2.82
				c3.2,1.74,6.36,3.55,9.64,5.07c3.22,1.65,6.56,3.02,9.86,4.45c1.65,0.7,3.35,1.29,5.02,1.93c1.67,0.64,3.34,1.28,5.04,1.8
				c1.69,0.55,3.39,1.1,5.07,1.65c1.7,0.5,3.42,0.95,5.12,1.42l2.55,0.7c0.85,0.23,1.72,0.4,2.57,0.6c1.72,0.38,3.43,0.77,5.14,1.15
				c1.71,0.35,3.44,0.62,5.15,0.93c1.72,0.3,3.42,0.63,5.15,0.81c1.72,0.22,3.43,0.44,5.14,0.65c1.71,0.24,3.44,0.3,5.15,0.46
				c1.71,0.12,3.44,0.32,5.13,0.36c1.69,0.05,3.37,0.11,5.05,0.16c0.86,0.02,1.64,0.06,2.55,0.06l2.53-0.05
				c1.68-0.03,3.36-0.06,5.04-0.09c1.67-0.06,3.34-0.21,5-0.3c1.66-0.13,3.32-0.16,4.96-0.38c13.15-1.34,25.8-4.1,37.59-8.09
				c0.46-0.16,0.9-0.33,1.36-0.49c-0.52-0.97-1.04-2-1.57-3.08C369.86,302.51,369.57,302.62,369.27,302.72z M192.7,252.31
				c-6.14-6-11.38-12.31-15.77-18.62c-4.4-6.31-7.98-12.61-10.74-18.69c-2.77-6.07-4.99-11.83-6.46-17.2
				c-0.53-1.77-0.99-3.49-1.4-5.15c-0.44-2.12-0.85-4.24-1.2-6.38c-1.11-7.47-1.65-15.07-1.66-22.57
				c0.08-17.22,3.54-34.24,9.76-50.07c0.3-0.68,0.6-1.36,0.92-2.05c2.76-6.09,6.34-12.39,10.74-18.7
				c8.77-12.62,21.04-25.25,36.8-35.45c3.96-2.5,8.09-4.93,12.46-7.08c1.09-0.55,2.18-1.09,3.28-1.65c1.12-0.5,2.25-1,3.38-1.5
				c2.24-1.06,4.61-1.88,6.95-2.81c9.45-3.52,19.63-6,30.27-7.3c1.32-0.21,2.67-0.3,4.01-0.42c1.35-0.11,2.69-0.23,4.05-0.34
				c1.36-0.05,2.72-0.1,4.09-0.15l2.05-0.07c0.15,0,0.08-0.01,0.19-0.01l0.26,0l0.53,0.01l1.05,0.02c1.41,0.01,2.82,0.03,4.23,0.04
				c1.4,0.03,2.75,0.15,4.14,0.22c2.75,0.1,5.55,0.48,8.35,0.77c5.59,0.79,11.24,1.74,16.81,3.29c2.82,0.67,5.56,1.63,8.35,2.49
				c1.38,0.48,2.74,1.01,4.12,1.52l2.07,0.77l2.03,0.87c7.53,3.15,14.84,7.12,21.78,11.8c1.51,1.02,2.51,4.32-2,4.26
				c-8.87-0.11-17.55,0.56-25.78,2.21c-8.97,1.83-17.42,4.62-25.13,8.14c-7.74,3.48-14.71,7.74-20.88,12.35
				c-6.18,4.61-11.56,9.59-16.18,14.65c-4.64,5.05-8.44,10.23-11.61,15.22c-1.09,1.74-2.11,3.45-3.07,5.13
				c-8.83,12.37-14.05,27.48-14.05,43.8c0,0.54,0.03,1.07,0.04,1.6c-0.03,0.37-0.06,0.76-0.08,1.16
				c-0.41,5.22-0.64,12.95,0.63,22.67c0.6,4.86,1.68,10.2,3.26,15.89c1.6,5.69,3.76,11.75,6.75,17.92
				c5.94,12.32,14.91,25.37,27.73,36.55c6.37,5.6,13.66,10.73,21.72,15.09c3.99,2.14,8.27,3.87,12.55,5.78
				c5.45,2.43,4.54,5.3-0.57,6.4c-2.88,0.62-5.78,1.14-8.66,1.59c-2.78,0.34-5.53,0.76-8.3,0.9c-1.38,0.09-2.76,0.24-4.13,0.28
				c-1.38,0.04-2.75,0.07-4.12,0.11l-1.96,0.06l-2.1-0.04c-1.4-0.03-2.79-0.06-4.18-0.08c-1.33-0.09-2.66-0.18-3.98-0.27
				c-1.32-0.1-2.63-0.16-3.96-0.35c-10.61-1.17-20.78-3.58-30.23-7.03c-2.34-0.91-4.71-1.72-6.95-2.76
				c-1.13-0.49-2.26-0.99-3.39-1.48c-1.1-0.54-2.19-1.09-3.28-1.62c-4.37-2.13-8.5-4.54-12.47-7.02
				C205.89,263.98,198.84,258.31,192.7,252.31z"/>
		</g>
	</g>
	<g>
		<path class="st5" d="M382.11,313.27c-1.56-0.28-3.05-0.75-4.47-1.38c-1.42-0.64-2.42-1.24-2.98-1.81
			c-0.71-0.71-1.67-2.2-2.87-4.47c-1.21-2.27-2.45-4.82-3.73-7.66c-2.41-5.53-4.29-11.95-5.64-19.27
			c-1.35-7.31-2.52-17.21-3.51-29.7c-0.57-7.66-0.85-17.24-0.85-28.74v-7.03c0-14.62,0.36-26.82,1.06-36.62
			c0.29-3.83,0.64-8.44,1.06-13.84c0.29-3.83,0.57-7.31,0.85-10.43c0.85-13.76,2.55-27.04,5.11-39.81c0.71-3.55,1.38-7.2,2.02-10.96
			c0.64-3.76,1.52-9.4,2.66-16.92c0.43-3.12,0.99-6.56,1.7-10.33c0.71-3.76,1.35-6.92,1.92-9.47c0.71-2.55,1.45-5.61,2.24-9.15
			c0.78-3.55,1.45-6.74,2.02-9.58c1.28-6.1,2.69-11.71,4.26-16.82c1.56-5.11,2.98-8.58,4.26-10.43c2.27-2.69,5.25-4.04,8.94-4.04
			c0.85,0,1.7,0.07,2.55,0.21c5.11,0.57,9.44,2.84,12.99,6.81l0.43,0.43c0.99,1.14,1.74,2.2,2.24,3.19c0.5,0.99,0.71,2.55,0.64,4.68
			c-0.07,2.13-0.36,5.36-0.85,9.69c-0.5,4.33-1.24,10.33-2.24,17.99l-0.43,3.41c-0.85,5.96-1.7,11.75-2.55,17.35
			c-0.85,5.61-1.49,9.76-1.92,12.45c-0.43,2.55-0.85,5.29-1.28,8.2c-0.43,2.91-0.71,5.36-0.85,7.34c-0.29,1.85-0.57,3.76-0.85,5.75
			c-0.29,1.99-0.57,3.62-0.85,4.9c-0.29,1.28-0.64,3.44-1.06,6.49c-0.43,3.05-0.78,6.35-1.06,9.9c-0.29,3.41-0.57,6.32-0.85,8.73
			c-0.29,2.41-0.5,3.83-0.64,4.26c-0.14,0.29-0.36,1.67-0.64,4.15c-0.29,2.49-0.5,5.43-0.64,8.83c-0.29,3.55-0.57,7.38-0.85,11.5
			c-0.29,4.12-0.57,7.52-0.85,10.22c-0.71,7.38-1.35,17.32-1.92,29.8c-0.57,12.49-0.85,23.42-0.85,32.78
			c0,11.07,0.35,21.01,1.06,29.8c0.71,8.8,1.56,13.7,2.55,14.69c0.28,0.14,0.64,0.21,1.06,0.21c1.99,0,4.97-1.77,8.94-5.32
			c2.69-2.41,7.31-5.85,13.84-10.33c6.53-4.47,12.77-8.48,18.73-12.03c9.93-5.82,17.17-10,21.71-12.56
			c4.54-2.55,9.01-4.82,13.41-6.81c3.83-1.84,6.74-3.09,8.73-3.73c1.99-0.64,4.04-0.96,6.17-0.96c6.24,0,9.37,1.85,9.37,5.54
			c0,0.85-0.14,1.6-0.43,2.24c-0.29,0.64-0.96,1.38-2.02,2.24s-2.7,1.92-4.9,3.19c-2.2,1.28-5.22,2.98-9.05,5.11
			c-18.17,10.22-30.37,18.09-36.62,23.63c-4.83,4.4-15.83,13.34-33,26.82c-2.13,1.56-4.15,2.98-6.07,4.26s-3.3,2.13-4.15,2.55
			c-2.42,1-4.83,1.53-7.24,1.6c-2.42,0.07-3.98,0.11-4.68,0.11C388,314.12,384.95,313.84,382.11,313.27z"/>
		<path class="st5" d="M518.14,145.73c5.96-2.55,11.28-3.83,15.97-3.83c3.83,0,7.16,0.85,10.01,2.55
			c6.38,3.69,10.29,8.52,11.71,14.48c1.42,5.96,2.13,10.86,2.13,14.69c0,4.54-0.64,9.3-1.92,14.26
			c-6.53,21.29-17.32,35.91-32.36,43.85c-2.13,1-3.97,1.95-5.54,2.87c-1.56,0.92-2.55,1.6-2.98,2.02c-0.71,1.14-1.06,2.84-1.06,5.11
			v1.06c0.14,2.84,0.64,5.96,1.49,9.37c3.41,11.78,6.63,18.06,9.69,18.84c3.05,0.78,5.07,1.17,6.07,1.17c4.4,0,8.94-2.2,13.62-6.6
			c5.82-5.39,11.35-12.13,16.6-20.22c3.12-4.68,6.67-10.43,10.64-17.24c3.97-6.81,7.38-12.91,10.22-18.31
			c5.67-12.2,10.71-18.31,15.12-18.31c0.56,0,1.06,0.07,1.49,0.21c1.7,0.57,2.55,2.06,2.55,4.47c0,0.71-0.07,1.42-0.21,2.13
			c-0.57,3.69-2.55,9.94-5.96,18.73c-10.79,28.24-21.01,48.4-30.66,60.46c-9.94,10.93-22.07,16.39-36.4,16.39h-1.7
			c-18.88-0.99-31.69-7.56-38.43-19.69s-10.11-25.58-10.11-40.34c0-2.41,0.07-4.97,0.21-7.66c1.42-17.88,5.78-34.45,13.09-49.71
			C498.74,161.24,507.64,150.98,518.14,145.73z M523.47,207.68c1.28-1.42,2.77-3.37,4.47-5.85c1.7-2.48,3.19-4.86,4.47-7.13
			c3.54-6.53,5.75-11.92,6.6-16.18c0.85-4.26,1.28-7.38,1.28-9.37c0-2.13-0.29-3.76-0.85-4.9c-0.43-0.85-1.06-1.28-1.92-1.28
			c-1.28,0-2.98,0.99-5.11,2.98c-6.81,7.24-11.92,17.96-15.33,32.15c-1.14,4.83-1.7,8.45-1.7,10.86c0,2.42,0.57,3.62,1.7,3.62
			C518.36,212.58,520.49,210.95,523.47,207.68z"/>
		<path class="st5" d="M583.29,204.7c0.85-14.9,3.34-32.71,7.45-53.43c1.28-7.09,2.09-11.85,2.45-14.26
			c0.35-2.41,0.53-4.04,0.53-4.9c0-0.99-0.14-1.56-0.43-1.7c-0.14-0.57-0.92-0.85-2.34-0.85c-2.84,0-8.3,1.21-16.39,3.62
			c-5.67,1.7-9.26,2.55-10.75,2.55s-2.31,0-2.45,0c-2.41,0-4.33-0.71-5.75-2.13c-1.13-0.85-1.88-1.81-2.24-2.87
			c-0.35-1.06-0.6-3.01-0.75-5.85v-2.13c0-2.98,0.5-5.46,1.49-7.45c1.42-2.27,4.58-4.22,9.47-5.85c4.9-1.63,12.38-3.44,22.46-5.43
			c3.83-0.85,7.13-1.63,9.9-2.34c2.77-0.71,4.36-1.2,4.79-1.49c0.71-0.71,1.84-3.19,3.41-7.45c1.56-4.26,2.91-8.59,4.04-12.99
			c2.27-8.23,5.39-14.05,9.37-17.46c2.27-1.56,5.18-2.34,8.73-2.34c1.28,0,2.69,0.14,4.26,0.43c5.54,0.99,10.01,3.12,13.41,6.39
			c2.55,2.7,4.15,5.04,4.79,7.03c0.64,1.99,0.96,4.19,0.96,6.6c0,1.56-0.07,3.27-0.21,5.11c-0.29,2.7-0.43,4.76-0.43,6.17
			c0,1.28,0.11,2.17,0.32,2.66c0.21,0.5,0.6,0.89,1.17,1.17c0.28,0.29,1.56,0.43,3.83,0.43c3.97,0,11.07-0.43,21.29-1.28
			c6.67-0.57,13.02-1.03,19.05-1.38c6.03-0.35,10.18-0.53,12.45-0.53c2.55,0,4.47,0.07,5.75,0.21c1.28,0.14,2.24,0.36,2.87,0.64
			c0.64,0.29,1.31,0.78,2.02,1.49c1.99,2.27,2.94,5.08,2.87,8.41c-0.07,3.34-1.24,5.71-3.51,7.13c-0.57,0.29-1.88,0.61-3.94,0.96
			c-2.06,0.36-4.36,0.68-6.92,0.96c-15.61,1.42-29.03,2.91-40.24,4.47c-11.21,1.56-17.81,2.84-19.8,3.83
			c-2.13,0.71-3.76,5.61-4.9,14.69c-0.29,1.85-0.61,3.83-0.96,5.96c-0.36,2.13-0.68,3.83-0.96,5.11c-0.29,1.42-0.61,3.41-0.96,5.96
			c-0.36,2.55-0.68,5.18-0.96,7.88c-0.29,2.84-0.68,6.1-1.17,9.79c-0.5,3.69-1.03,7.03-1.6,10.01c-1.99,10.93-3.37,22.99-4.15,36.19
			c-0.78,13.2-1.17,23.35-1.17,30.44c0,5.96,0.21,11.14,0.64,15.54c2.27,22.71,4.9,34.06,7.88,34.06c0.28,0,0.57-0.07,0.85-0.21
			c3.55-2.27,8.58-13.06,15.11-32.36c3.69-10.22,7.31-20.51,10.86-30.87c0.57-1.84,1.13-3.62,1.7-5.32l1.7-5.11
			c2.69-8.37,4.79-14.65,6.28-18.84c1.49-4.18,2.77-7.09,3.83-8.73c1.06-1.63,2.16-2.59,3.3-2.87c1.13-0.57,2.27-0.85,3.41-0.85
			c0.71,0,1.49,0.14,2.34,0.43c1.84,0.43,3.26,1.35,4.26,2.77c0.57,0.85,0.88,1.99,0.96,3.41c0.07,1.42-0.21,3.59-0.85,6.49
			c-0.64,2.91-1.74,7.06-3.3,12.45c-0.85,3.55-1.78,7.13-2.77,10.75c-1,3.62-1.7,6.42-2.13,8.41c-1.7,6.96-3.48,13.91-5.32,20.86
			c-1.99,6.96-3.83,13.91-5.54,20.86c-6.25,25.26-13.2,40.45-20.86,45.56c-7.66,5.11-13.98,7.66-18.95,7.66
			c-5.54,0-11.14-2.2-16.82-6.6c-10.5-8.23-18.66-21.61-24.48-40.13c-5.82-18.52-8.73-38.99-8.73-61.42
			C582.86,216.98,583.01,210.95,583.29,204.7z"/>
		<path class="st5" d="M655.46,303.26c6.25-18.45,22.57-37.47,48.96-57.05c3.55-2.69,6.53-5.07,8.94-7.13
			c2.41-2.06,3.62-3.23,3.62-3.51c0-0.43-0.39-0.92-1.17-1.49c-0.78-0.57-1.74-1.13-2.87-1.7c-26.82-12.06-41.05-23.17-42.68-33.32
			c-1.63-10.15-2.45-16.29-2.45-18.41c0-16.04,10.57-31.43,31.72-46.2c5.11-3.41,8.97-5.57,11.6-6.49c2.62-0.92,5-1.38,7.13-1.38
			c0.85,0,1.7,0.07,2.55,0.21c5.39,0.43,11.07,3.55,17.03,9.37c5.96,5.68,8.94,11.43,8.94,17.24c0,5.4-4.33,10.15-12.99,14.26
			c-2.7,1.42-4.93,2.84-6.71,4.26c-1.78,1.42-3.8,3.48-6.07,6.17c-5.82,6.53-8.73,11.07-8.73,13.62v0.43
			c0.43,2.55,4.33,5.47,11.71,8.73c7.24,3.69,12.84,7.38,16.82,11.07c1.7,1.56,3.3,2.84,4.79,3.83c1.49,0.99,2.45,1.49,2.87,1.49
			s3.01-1.13,7.77-3.41c4.75-2.27,10.46-5.11,17.14-8.52c6.67-3.41,12.56-6.35,17.67-8.83c5.11-2.48,8.3-3.94,9.58-4.36
			s2.41-0.64,3.41-0.64c2.98,0,5.18,1.49,6.6,4.47c0.28,0.71,0.43,1.42,0.43,2.13c0,1.28-0.57,2.48-1.7,3.62
			c-1.85,1.85-6.03,4.4-12.56,7.66c-20.86,11.07-32.64,17.81-35.34,20.22c-0.57,0.43-0.92,0.85-1.06,1.28
			c-0.14,0.43-0.21,0.85-0.21,1.28s0.07,0.92,0.21,1.49c0.14,1.14,0.6,2.84,1.38,5.11c0.78,2.27,1.95,5.46,3.51,9.58
			c2.27,7.1,3.41,14.05,3.41,20.86c0,8.09-1.56,15.97-4.68,23.63c-5.96,14.34-14.48,26.96-25.55,37.89
			c-14.05,13.2-25.01,19.97-32.89,20.33c-7.88,0.35-12.31,0.53-13.3,0.53c-13.2,0-23.7-4.04-31.51-12.13
			c-5.39-5.68-8.09-12.56-8.09-20.65C652.69,313.98,653.61,308.8,655.46,303.26z M710.38,307.73c4.4-5.11,8.97-12.31,13.73-21.61
			c4.75-9.29,7.84-16.85,9.26-22.67c0.85-3.97,1.28-7.16,1.28-9.58c0-2.55-0.57-4.04-1.7-4.47h-0.64c-2.42,0-7.17,2.91-14.26,8.73
			c-21.71,18.03-35.2,34.35-40.45,48.96c-1.56,5.25-2.34,9.37-2.34,12.35c0,3.83,1.14,6.03,3.41,6.6c0.71,0.14,1.49,0.21,2.34,0.21
			c3.69,0,8.16-1.7,13.41-5.11C700.94,316.89,706.26,312.42,710.38,307.73z"/>
		<path class="st5" d="M891.12,309.01c-1.99-0.71-4.36-2.27-7.13-4.68c-2.77-2.41-5.15-5.04-7.13-7.88
			c-4.54-6.95-7.81-15.4-9.79-25.33c-2.55-14.62-4.26-21.93-5.11-21.93c-0.14,0-0.61,0.92-1.38,2.77c-0.78,1.85-1.63,3.97-2.55,6.39
			c-0.92,2.41-1.67,4.68-2.24,6.81c-0.85,2.7-2.49,6.28-4.9,10.75c-2.42,4.47-4.54,7.77-6.39,9.9c-5.25,5.25-11.85,7.88-19.8,7.88
			h-2.34c-8.8-0.57-16.18-3.48-22.14-8.73c-6.53-6.53-10.61-13.76-12.24-21.71c-1.63-7.95-2.45-15.11-2.45-21.5
			c0-3.69,0.21-7.38,0.64-11.07c1.14-10.36,3.19-19.51,6.17-27.46c9.51-25.4,23.06-40.02,40.66-43.85c1.28-0.28,2.69-0.43,4.26-0.43
			c2.13,0,4.54,0.29,7.24,0.85c4.4,0.71,8.44,1.92,12.13,3.62c2.13,0.99,3.69,1.49,4.68,1.49c0.43,0,0.78-0.07,1.06-0.21
			c0.99-0.57,1.49-2.48,1.49-5.75c0-12.35,1.49-29.94,4.47-52.8c2.98-22.85,5.96-40.38,8.94-52.58c1.84-6.81,3.97-10.68,6.39-11.6
			c2.41-0.92,4.11-1.38,5.11-1.38c3.41,0,7.38,2.06,11.92,6.17c0.71,0.71,1.38,1.67,2.02,2.87c0.64,1.21,1.17,2.31,1.6,3.3
			c0.57,2.7,0.85,8.16,0.85,16.39v5.11c-0.29,11.07-0.92,24.06-1.92,38.96c-1.99,24.13-3.27,42.54-3.83,55.24
			c-0.57,12.7-0.85,26.79-0.85,42.26v7.03c0,11.21,0.28,20.58,0.85,28.1c0.57,9.23,1.56,17.46,2.98,24.69
			c1.56,8.38,2.77,12.7,3.62,12.99c0.85,0.29,1.35,0.43,1.49,0.43c1.7,0,3.9-3.12,6.6-9.37c1.56-3.12,3.83-8.76,6.81-16.92
			c2.98-8.16,6.1-16.89,9.37-26.19c3.26-9.29,5.96-17.35,8.09-24.16c1.28-4.26,2.27-7.34,2.98-9.26c0.71-1.92,1.42-3.23,2.13-3.94
			c0.71-0.71,1.63-1.28,2.77-1.7c1.28-0.71,2.55-1.06,3.83-1.06c0.57,0,1.13,0.07,1.7,0.21c1.7,0.43,2.98,1.35,3.83,2.77
			c0,0.29,0.07,0.5,0.21,0.64c0.28,0.57,0.46,1.1,0.53,1.6c0.07,0.5,0.11,0.96,0.11,1.38c0,0.71-0.07,1.63-0.21,2.77
			c-0.29,1.85-0.92,4.47-1.92,7.88c-0.99,3.41-2.42,8.09-4.26,14.05c-4.68,15.19-8.52,27.32-11.5,36.4
			c-2.98,9.08-5.32,16.11-7.02,21.08c-1.7,4.97-3.16,8.73-4.36,11.28c-1.21,2.55-2.45,4.76-3.73,6.6c-1.99,3.12-4.08,5.43-6.28,6.92
			c-2.2,1.49-5.36,2.66-9.47,3.51c-3.69,1-7.03,1.49-10.01,1.49C895.3,310.08,893.1,309.72,891.12,309.01z M832.58,259.2
			c0.99-1.56,2.06-3.44,3.19-5.64c1.13-2.2,2.06-4.08,2.77-5.64c0.71-1.7,1.42-3.26,2.13-4.68c0.71-1.42,1.2-2.41,1.49-2.98
			c1.28-2.41,3.26-7.63,5.96-15.65c2.69-8.02,5.22-16.14,7.56-24.38c2.34-8.23,3.51-13.27,3.51-15.12c0-1.56-0.71-3.19-2.13-4.9
			c-1.42-1.7-3.12-2.91-5.11-3.62c-0.43-0.14-0.85-0.21-1.28-0.21c-4.97,0-10.29,4.33-15.97,12.99c-3.97,6.67-7.03,15.54-9.15,26.61
			c-2.13,11.07-3.19,20.94-3.19,29.59c0,1.99,0.07,3.97,0.21,5.96c0.57,9.08,1.99,13.62,4.26,13.62
			C828.39,265.16,830.3,263.17,832.58,259.2z"/>
		<path class="st5" d="M941.36,268.99c-2.13-6.53-3.69-14.08-4.68-22.67c-0.99-8.58-1.49-15.29-1.49-20.12
			c0-6.81,0.57-13.41,1.7-19.8c1.7-10.93,6.1-17.6,13.2-20.01c1.13-0.28,2.2-0.64,3.19-1.06c0.99-0.43,1.63-0.78,1.92-1.06
			c0.28-0.43,0.6-1.35,0.96-2.77c0.35-1.42,0.67-3.05,0.96-4.9c1.42-9.51,4.08-18.02,7.98-25.55c3.9-7.52,8.33-12.56,13.3-15.11
			c3.97-1.84,7.88-2.77,11.71-2.77c6.1,0,11.78,2.42,17.03,7.24c12.06,13.06,18.1,32.22,18.1,57.48v2.34
			c0,9.65,0.85,14.48,2.55,14.48c0.28,0,1.56-1.06,3.83-3.19c2.27-2.13,4.9-4.82,7.88-8.09l1.28-1.28c1.28-1.56,3.01-3.41,5.21-5.54
			c2.2-2.13,4.15-3.58,5.85-4.36c1.7-0.78,2.98-1.17,3.83-1.17c1.13,0,2.2,0.43,3.19,1.28c0.57,0.71,0.85,1.56,0.85,2.55
			c0,0.57-0.07,1.21-0.21,1.92c-0.43,1.85-1.28,3.62-2.55,5.32c-7.1,9.79-12.56,16.89-16.39,21.29c-3.83,4.4-7.52,7.88-11.07,10.43
			c-1.99,1.56-3.66,2.98-5,4.26c-1.35,1.28-2.1,2.13-2.24,2.55c-0.14,0.57-0.46,1.78-0.96,3.62c-0.5,1.85-1.03,3.97-1.6,6.39
			c-2.27,9.51-5.22,18.38-8.83,26.61c-3.62,8.23-7.2,14.26-10.75,18.1c-6.39,5.96-12.92,8.94-19.59,8.94
			c-1.14,0-2.27-0.07-3.41-0.21c-7.81-1.28-14.94-5.22-21.39-11.81C949.27,285.7,944.48,277.93,941.36,268.99z M985,275.59
			c3.12-3.41,6.81-10.29,11.07-20.65c1.42-3.55,2.27-5.92,2.55-7.13c0.28-1.2,0.43-2.02,0.43-2.45c0-0.99-0.29-1.7-0.85-2.13
			c-0.85-0.71-2.34-1.35-4.47-1.92c-1.56-0.43-3.44-1.06-5.64-1.92c-2.2-0.85-4.22-1.7-6.07-2.55c-2.7-1.42-4.68-2.13-5.96-2.13
			c-0.71,0-1.21,0.21-1.49,0.64c-0.71,0.85-1.06,2.98-1.06,6.39c0,1.42,0.07,3.12,0.21,5.11c0.43,15.47,2.34,25.55,5.75,30.23
			c0.71,0.71,1.35,1.06,1.92,1.06h0.43C982.52,278,983.58,277.15,985,275.59z M1004.59,225.56c0.71-0.99,1.49-4.26,2.34-9.79
			c0.85-5.54,1.56-11.35,2.13-17.46c0.14-1.7,0.21-3.41,0.21-5.11c0-6.95-0.71-13.84-2.13-20.65c-1.7-8.66-4.12-15.04-7.24-19.16
			c-0.85-0.85-1.7-1.63-2.55-2.34c-0.85-0.71-1.49-1.06-1.92-1.06c-2.98,0-5.89,3.91-8.73,11.71c-2.84,7.81-4.33,15.97-4.47,24.48
			c0,4.4,0.82,9.9,2.45,16.5c1.63,6.6,3.44,11.68,5.43,15.22c2.27,3.55,4.5,5.89,6.71,7.02c2.2,1.14,3.87,1.7,5,1.7
			C1002.95,226.62,1003.88,226.27,1004.59,225.56z"/>
		<path class="st5" d="M1041.42,204.7c0.85-14.9,3.34-32.71,7.45-53.43c1.28-7.09,2.09-11.85,2.45-14.26
			c0.35-2.41,0.53-4.04,0.53-4.9c0-0.99-0.14-1.56-0.43-1.7c-0.14-0.57-0.92-0.85-2.34-0.85c-2.84,0-8.3,1.21-16.39,3.62
			c-5.67,1.7-9.26,2.55-10.75,2.55s-2.31,0-2.45,0c-2.41,0-4.33-0.71-5.75-2.13c-1.13-0.85-1.88-1.81-2.24-2.87
			c-0.35-1.06-0.6-3.01-0.75-5.85v-2.13c0-2.98,0.5-5.46,1.49-7.45c1.42-2.27,4.58-4.22,9.47-5.85c4.9-1.63,12.38-3.44,22.46-5.43
			c3.83-0.85,7.13-1.63,9.9-2.34c2.77-0.71,4.36-1.2,4.79-1.49c0.71-0.71,1.84-3.19,3.41-7.45c1.56-4.26,2.91-8.59,4.04-12.99
			c2.27-8.23,5.39-14.05,9.37-17.46c2.27-1.56,5.18-2.34,8.73-2.34c1.28,0,2.69,0.14,4.26,0.43c5.54,0.99,10.01,3.12,13.41,6.39
			c2.55,2.7,4.15,5.04,4.79,7.03c0.64,1.99,0.96,4.19,0.96,6.6c0,1.56-0.07,3.27-0.21,5.11c-0.29,2.7-0.43,4.76-0.43,6.17
			c0,1.28,0.11,2.17,0.32,2.66c0.21,0.5,0.6,0.89,1.17,1.17c0.28,0.29,1.56,0.43,3.83,0.43c3.97,0,11.07-0.43,21.29-1.28
			c6.67-0.57,13.02-1.03,19.05-1.38c6.03-0.35,10.18-0.53,12.45-0.53c2.55,0,4.47,0.07,5.75,0.21c1.28,0.14,2.24,0.36,2.87,0.64
			c0.64,0.29,1.31,0.78,2.02,1.49c1.99,2.27,2.94,5.08,2.87,8.41c-0.07,3.34-1.24,5.71-3.51,7.13c-0.57,0.29-1.88,0.61-3.94,0.96
			c-2.06,0.36-4.36,0.68-6.92,0.96c-15.61,1.42-29.03,2.91-40.24,4.47c-11.21,1.56-17.81,2.84-19.8,3.83
			c-2.13,0.71-3.76,5.61-4.9,14.69c-0.29,1.85-0.61,3.83-0.96,5.96c-0.36,2.13-0.68,3.83-0.96,5.11c-0.29,1.42-0.61,3.41-0.96,5.96
			c-0.36,2.55-0.68,5.18-0.96,7.88c-0.29,2.84-0.68,6.1-1.17,9.79c-0.5,3.69-1.03,7.03-1.6,10.01c-1.99,10.93-3.37,22.99-4.15,36.19
			c-0.78,13.2-1.17,23.35-1.17,30.44c0,5.96,0.21,11.14,0.64,15.54c2.27,22.71,4.9,34.06,7.88,34.06c0.28,0,0.57-0.07,0.85-0.21
			c3.55-2.27,8.58-13.06,15.11-32.36c3.69-10.22,7.31-20.51,10.86-30.87c0.57-1.84,1.13-3.62,1.7-5.32l1.7-5.11
			c2.69-8.37,4.79-14.65,6.28-18.84c1.49-4.18,2.77-7.09,3.83-8.73c1.06-1.63,2.16-2.59,3.3-2.87c1.13-0.57,2.27-0.85,3.41-0.85
			c0.71,0,1.49,0.14,2.34,0.43c1.84,0.43,3.26,1.35,4.26,2.77c0.57,0.85,0.88,1.99,0.96,3.41c0.07,1.42-0.21,3.59-0.85,6.49
			c-0.64,2.91-1.74,7.06-3.3,12.45c-0.85,3.55-1.78,7.13-2.77,10.75c-1,3.62-1.7,6.42-2.13,8.41c-1.7,6.96-3.48,13.91-5.32,20.86
			c-1.99,6.96-3.83,13.91-5.54,20.86c-6.25,25.26-13.2,40.45-20.86,45.56c-7.66,5.11-13.98,7.66-18.95,7.66
			c-5.54,0-11.14-2.2-16.82-6.6c-10.5-8.23-18.66-21.61-24.48-40.13c-5.82-18.52-8.73-38.99-8.73-61.42
			C1040.99,216.98,1041.13,210.95,1041.42,204.7z"/>
		<path class="st5" d="M1210.66,289c-0.43-4.68-0.64-9.86-0.64-15.54c0-16.04,1.63-36.19,4.9-60.46c0.71-6.1,1.28-10.93,1.7-14.48
			c0.43-3.55,0.71-6.63,0.85-9.26c0.14-2.62,0.28-5.64,0.43-9.05c0-3.12,0-5.54,0-7.24s-0.14-3.05-0.43-4.04
			c-0.29-0.99-0.64-1.84-1.06-2.55c-1-1.56-2.17-2.31-3.51-2.24c-1.35,0.07-3.09,1.1-5.22,3.09c-7.81,6.96-14.79,18.38-20.97,34.27
			c-6.17,15.9-10.26,33.07-12.24,51.52c-0.57,6.67-1.31,11.28-2.24,13.84c-0.92,2.55-2.38,4.26-4.36,5.11
			c-1.99,1-4.47,1.49-7.45,1.49s-5.53-0.43-7.66-1.28c-3.83-1.7-7.52-5.78-11.07-12.24c-3.55-6.46-6.31-14.23-8.3-23.31
			c-3.12-15.18-5.18-32.82-6.17-52.9c-0.99-20.08-1.49-36.86-1.49-50.35c0-12.06,0.29-23.98,0.85-35.76
			c1.14-25.12,3.69-43.57,7.66-55.35c0.43-1.56,1.03-2.8,1.81-3.73c0.78-0.92,1.81-1.74,3.09-2.45c0.99-0.57,1.77-0.92,2.34-1.06
			c0.57-0.14,1.2-0.21,1.92-0.21h1.06c1.13,0.29,2.91,0.64,5.32,1.06c4.82,1.14,8.23,2.63,10.22,4.47c1.7,1.42,2.94,2.98,3.73,4.68
			c0.78,1.7,1.17,3.66,1.17,5.85c0,2.2,0,4.01,0,5.43c0,2.98-0.07,6.53-0.21,10.64c-0.57,11.21-1.14,25.26-1.7,42.15
			c-0.57,16.89-0.85,32.43-0.85,46.62v10.64c0.14,17.6,1.06,30.09,2.77,37.47c0.28,0.71,0.64,1.35,1.06,1.92
			c0.43,0.57,0.78,0.85,1.06,0.85c0.43,0,1.24-1.13,2.45-3.41c1.2-2.27,2.59-5.11,4.15-8.52c2.98-6.53,6.46-12.99,10.43-19.37
			c3.97-6.39,7.8-11.64,11.5-15.75c6.53-6.81,13.41-10.22,20.65-10.22c1.56,0,3.19,0.14,4.9,0.43c9.08,1.7,15.82,7.95,20.22,18.73
			c1.99,4.97,3.12,9.62,3.41,13.94c0.28,4.33,0.43,8.2,0.43,11.6c0,5.68-0.21,12.7-0.64,21.08c-0.71,17.6-1.06,34.13-1.06,49.6
			c0,15.33,0.35,24.77,1.06,28.31c0.99,3.12,2.13,4.68,3.41,4.68c0.71,0,1.42-0.43,2.13-1.28c1.28-2.13,3.94-8.55,7.98-19.27
			c4.04-10.71,8.41-22.96,13.09-36.72c4.68-13.76,8.73-26.4,12.13-37.89c1.28-4.4,2.55-7.41,3.83-9.05
			c1.28-1.63,3.05-2.45,5.32-2.45c4.4,0.14,6.6,2.27,6.6,6.39c0,0.85-0.57,3.62-1.7,8.3c-1.14,4.68-2.55,10.01-4.26,15.97
			c-1.7,6.25-3.44,12.74-5.22,19.48c-1.78,6.74-3.16,12.24-4.15,16.5c-3.41,14.34-6.74,26.11-10.01,35.34
			c-5.82,15.19-12.1,24.59-18.84,28.21c-6.74,3.62-12.17,5.43-16.29,5.43c-4.54,0-8.94-1.49-13.2-4.47
			C1217.4,316.54,1212.5,305.47,1210.66,289z"/>
		<path class="st5" d="M1304.54,293.68c-8.94-3.12-15.43-9.15-19.48-18.1s-6.28-17.46-6.71-25.55c-0.43-8.09-0.64-14.26-0.64-18.52
			c0-7.09,0.36-14.05,1.06-20.86c0-1.28,0.07-2.69,0.21-4.26c0.43-5.82,1.14-12.52,2.13-20.12c1-7.59,2.73-14.48,5.22-20.65
			s6.07-10.11,10.75-11.82c1.13-0.28,2.41-0.43,3.83-0.43c2.55,0,5.39,0.57,8.51,1.7c4.54,1.56,8.02,3.76,10.43,6.6
			c1.28,1.99,1.99,4.04,2.13,6.17c0.14,2.13,0.21,3.48,0.21,4.04c0,3.27-0.36,6.39-1.06,9.37c-1.99,6.96-3.44,15.29-4.36,25.01
			c-0.92,9.72-1.53,18.2-1.81,25.44c-0.29,5.54-0.43,10.36-0.43,14.48c0,9.51,0.78,15.47,2.34,17.88c0.85,1.28,1.77,1.92,2.77,1.92
			c1.7,0,3.83-1.84,6.39-5.54c3.97-5.96,8.16-13.94,12.56-23.95c4.4-10.01,8.23-19.41,11.5-28.21c3.97-11.07,8.02-16.61,12.13-16.61
			c0.85,0,1.77,0.29,2.77,0.85c1.7,0.71,2.73,1.49,3.09,2.34c0.35,0.85,0.53,1.63,0.53,2.34c0,1-0.21,2.13-0.64,3.41
			c-0.57,2.55-1.85,6.17-3.83,10.86c-1.42,3.83-2.91,7.88-4.47,12.13c-1.56,4.26-2.84,7.74-3.83,10.43
			c-0.85,2.13-1.78,4.54-2.77,7.24c-1.56,4.54-3.05,8.73-4.47,12.56c-7.81,21.71-16.11,34.7-24.91,38.96
			c-2.27,0.85-4.61,1.31-7.03,1.38c-2.42,0.07-3.97,0.11-4.68,0.11C1309.01,294.32,1306.53,294.11,1304.54,293.68z M1303.27,128.27
			c-9.23-4.4-14.23-8.87-15.01-13.41c-0.78-4.54-1.17-7.59-1.17-9.15c0-5.25,1.77-9.65,5.32-13.2c2.55-2.41,5.6-3.62,9.15-3.62
			c3.41,0,7.24,1.06,11.5,3.19c5.39,2.55,8.55,4.93,9.47,7.13c0.92,2.2,1.38,4.44,1.38,6.71c0,2.27-0.36,5.04-1.06,8.3
			c-0.99,4.12-1.88,7.1-2.66,8.94c-0.78,1.85-1.74,3.34-2.87,4.47c-1.7,1.7-3.83,2.55-6.39,2.55
			C1308.66,130.19,1306.1,129.55,1303.27,128.27z"/>
		<path class="st5" d="M1335.2,303.26c6.25-18.45,22.57-37.47,48.96-57.05c3.55-2.69,6.53-5.07,8.94-7.13
			c2.41-2.06,3.62-3.23,3.62-3.51c0-0.43-0.39-0.92-1.17-1.49c-0.78-0.57-1.74-1.13-2.87-1.7c-26.82-12.06-41.05-23.17-42.68-33.32
			c-1.63-10.15-2.45-16.29-2.45-18.41c0-16.04,10.57-31.43,31.72-46.2c5.11-3.41,8.97-5.57,11.6-6.49c2.62-0.92,5-1.38,7.13-1.38
			c0.85,0,1.7,0.07,2.55,0.21c5.39,0.43,11.07,3.55,17.03,9.37c5.96,5.68,8.94,11.43,8.94,17.24c0,5.4-4.33,10.15-12.99,14.26
			c-2.7,1.42-4.93,2.84-6.71,4.26c-1.78,1.42-3.8,3.48-6.07,6.17c-5.82,6.53-8.73,11.07-8.73,13.62v0.43
			c0.43,2.55,4.33,5.47,11.71,8.73c7.24,3.69,12.84,7.38,16.82,11.07c1.7,1.56,3.3,2.84,4.79,3.83c1.49,0.99,2.45,1.49,2.87,1.49
			s3.01-1.13,7.77-3.41c4.75-2.27,10.46-5.11,17.14-8.52c6.67-3.41,12.56-6.35,17.67-8.83c5.11-2.48,8.3-3.94,9.58-4.36
			s2.41-0.64,3.41-0.64c2.98,0,5.18,1.49,6.6,4.47c0.28,0.71,0.43,1.42,0.43,2.13c0,1.28-0.57,2.48-1.7,3.62
			c-1.85,1.85-6.03,4.4-12.56,7.66c-20.86,11.07-32.64,17.81-35.34,20.22c-0.57,0.43-0.92,0.85-1.06,1.28
			c-0.14,0.43-0.21,0.85-0.21,1.28s0.07,0.92,0.21,1.49c0.14,1.14,0.6,2.84,1.38,5.11c0.78,2.27,1.95,5.46,3.51,9.58
			c2.27,7.1,3.41,14.05,3.41,20.86c0,8.09-1.56,15.97-4.68,23.63c-5.96,14.34-14.48,26.96-25.55,37.89
			c-14.05,13.2-25.01,19.97-32.89,20.33c-7.88,0.35-12.31,0.53-13.3,0.53c-13.2,0-23.7-4.04-31.51-12.13
			c-5.39-5.68-8.09-12.56-8.09-20.65C1332.43,313.98,1333.36,308.8,1335.2,303.26z M1390.12,307.73c4.4-5.11,8.97-12.31,13.73-21.61
			c4.75-9.29,7.84-16.85,9.26-22.67c0.85-3.97,1.28-7.16,1.28-9.58c0-2.55-0.57-4.04-1.7-4.47h-0.64c-2.42,0-7.17,2.91-14.26,8.73
			c-21.71,18.03-35.2,34.35-40.45,48.96c-1.56,5.25-2.34,9.37-2.34,12.35c0,3.83,1.14,6.03,3.41,6.6c0.71,0.14,1.49,0.21,2.34,0.21
			c3.69,0,8.16-1.7,13.41-5.11C1380.68,316.89,1386,312.42,1390.12,307.73z"/>
	</g>
</g>
</svg>
